<?xml version="1.0" standalone="no"?>
<!DOCTYPE svg PUBLIC "-//W3C//DTD SVG 20010904//EN"
 "http://www.w3.org/TR/2001/REC-SVG-20010904/DTD/svg10.dtd">
<svg version="1.0" xmlns="http://www.w3.org/2000/svg"
 width="500.000000pt" height="375.000000pt" viewBox="0 0 500.000000 375.000000"
 preserveAspectRatio="xMidYMid meet">
<metadata>
Created by potrace 1.16, written by Peter Selinger 2001-2019
</metadata>
<g transform="translate(0.000000,375.000000) scale(0.100000,-0.100000)"
fill="#000000" stroke="none">
<path d="M2150 3519 c0 -5 -25 -9 -55 -9 -30 0 -55 -4 -55 -10 0 -6 -27 -10
-60 -10 -33 0 -60 -4 -60 -10 0 -5 -20 -10 -45 -10 -31 0 -44 -4 -42 -12 1 -9
-13 -14 -40 -16 -24 -2 -43 -7 -43 -13 0 -5 -16 -9 -35 -9 -19 0 -35 -4 -35
-10 0 -5 -13 -10 -30 -10 -16 0 -30 -4 -30 -8 0 -9 -70 -42 -88 -42 -7 0 -12
-4 -12 -10 0 -5 -7 -10 -15 -10 -8 0 -15 -4 -15 -10 0 -5 -9 -10 -19 -10 -10
0 -21 -7 -25 -15 -3 -8 -12 -15 -21 -15 -8 0 -15 -4 -15 -10 0 -5 -9 -10 -20
-10 -11 0 -20 -4 -20 -10 0 -5 -7 -10 -15 -10 -8 0 -15 -4 -15 -10 0 -5 -5
-10 -10 -10 -5 0 -18 -8 -28 -17 -35 -33 -62 -53 -73 -53 -6 0 -25 -16 -43
-35 -19 -19 -38 -35 -45 -35 -6 0 -11 -4 -11 -10 0 -5 -7 -10 -15 -10 -8 0
-15 -7 -15 -15 0 -8 -4 -15 -9 -15 -4 0 -22 -13 -39 -30 -18 -16 -36 -30 -42
-30 -5 0 -10 -4 -10 -8 0 -5 -19 -29 -42 -54 -61 -65 -88 -100 -88 -116 0 -7
-5 -10 -10 -7 -6 3 -10 -1 -10 -9 0 -9 -4 -16 -10 -16 -5 0 -10 -9 -10 -20 0
-11 -4 -20 -9 -20 -5 0 -11 -10 -13 -22 -2 -13 -9 -22 -16 -21 -7 2 -12 -9
-12 -27 0 -17 -4 -30 -10 -30 -5 0 -10 -9 -10 -20 0 -11 -4 -20 -10 -20 -5 0
-10 -8 -10 -17 -1 -33 -37 -128 -43 -113 -3 8 -6 -6 -6 -32 -1 -27 -5 -48 -11
-48 -5 0 -10 -20 -10 -45 0 -25 -4 -45 -9 -45 -9 0 -18 -62 -27 -207 -3 -46
-9 -83 -12 -83 -4 0 -8 -72 -9 -160 -1 -91 3 -160 8 -160 5 0 9 -16 9 -35 0
-19 5 -35 10 -35 6 0 10 -20 10 -45 0 -25 5 -45 10 -45 6 0 10 -16 10 -35 0
-19 5 -35 10 -35 6 0 10 -16 10 -36 0 -20 4 -33 9 -29 6 3 13 -10 17 -30 3
-19 10 -38 15 -41 5 -3 9 -18 9 -35 0 -16 5 -29 10 -29 6 0 10 -7 10 -15 0 -9
10 -32 23 -53 12 -20 28 -46 35 -57 7 -11 18 -31 25 -45 6 -14 22 -33 34 -43
13 -10 23 -25 23 -33 0 -8 5 -14 10 -14 6 0 10 -7 10 -15 0 -8 5 -15 10 -15 6
0 10 -7 10 -16 0 -8 4 -13 8 -10 4 3 17 -12 28 -32 18 -35 107 -132 121 -132
3 0 21 -16 40 -35 19 -19 38 -35 43 -35 6 0 10 -4 10 -10 0 -5 7 -10 15 -10 8
0 15 -4 15 -10 0 -5 7 -10 15 -10 8 0 15 -4 15 -10 0 -5 7 -10 15 -10 9 0 18
-7 21 -15 4 -8 12 -15 20 -15 8 0 14 -4 14 -10 0 -5 7 -10 16 -10 9 0 27 -11
40 -25 13 -14 30 -25 39 -25 8 0 15 -4 15 -10 0 -5 9 -10 19 -10 11 0 23 -4
26 -10 3 -5 15 -10 26 -10 10 0 19 -4 19 -10 0 -5 9 -10 20 -10 11 0 23 -7 26
-15 4 -8 17 -15 30 -15 13 0 24 -4 24 -10 0 -5 13 -10 29 -10 17 0 33 -4 36
-10 3 -5 19 -10 35 -10 16 0 32 -4 35 -10 3 -5 21 -10 40 -10 18 0 40 -7 49
-15 9 -9 33 -15 60 -15 25 0 46 -4 46 -10 0 -6 28 -10 65 -10 37 0 65 -4 65
-10 0 -6 72 -10 195 -10 123 0 195 4 195 10 0 6 30 10 70 10 40 0 70 4 70 10
0 6 26 10 59 10 43 0 60 4 65 15 3 8 16 15 30 15 14 0 28 5 31 10 3 6 19 10
36 10 16 0 29 5 29 10 0 6 14 10 31 10 17 0 28 4 24 10 -4 6 6 10 23 10 17 0
32 6 36 15 3 8 15 15 26 15 11 0 20 5 20 10 0 6 11 10 25 10 14 0 25 5 25 10
0 6 11 10 25 10 14 0 25 5 25 10 0 6 11 10 25 10 16 0 25 6 25 15 0 8 9 15 20
15 11 0 20 5 20 10 0 6 9 10 20 10 11 0 20 5 20 10 0 6 9 10 19 10 11 0 32 11
47 25 15 14 33 25 40 25 8 0 14 5 14 10 0 6 9 10 20 10 11 0 20 5 20 10 0 6 5
10 10 10 6 0 18 8 28 18 35 32 62 52 72 52 6 0 10 5 10 10 0 6 7 10 15 10 8 0
15 5 15 10 0 15 46 60 61 60 7 0 9 3 6 6 -4 4 5 20 18 36 14 16 25 34 25 39 0
5 8 9 17 9 9 0 14 3 10 6 -3 3 15 25 39 49 24 24 44 47 44 50 0 4 6 13 13 20
31 35 37 45 37 60 0 8 5 15 10 15 6 0 10 7 10 15 0 8 5 15 10 15 6 0 10 9 10
20 0 11 7 23 15 26 9 4 15 19 15 35 0 16 5 29 10 29 6 0 10 11 10 25 0 14 5
25 10 25 6 0 10 13 10 29 0 37 10 62 21 55 5 -3 9 13 9 35 0 23 5 41 10 41 6
0 10 25 10 55 0 30 5 55 10 55 6 0 10 27 10 60 0 33 4 60 10 60 6 0 10 28 10
65 0 40 4 65 11 65 7 0 9 65 5 213 -5 225 -12 307 -27 307 -5 0 -9 20 -9 44 0
25 -4 48 -10 51 -5 3 -10 19 -10 36 0 16 -4 29 -10 29 -5 0 -10 14 -10 30 0
17 -5 29 -11 28 -6 -2 -18 20 -27 47 -9 28 -20 52 -24 53 -4 2 -8 10 -8 18 0
8 -3 14 -7 14 -10 0 -43 57 -43 74 0 6 -9 18 -20 26 -11 8 -20 19 -20 25 0 5
-16 28 -35 50 -19 22 -35 43 -35 47 0 4 -20 28 -45 52 -25 25 -45 50 -45 56 0
5 -5 10 -11 10 -6 0 -31 20 -56 45 -24 25 -49 45 -54 45 -5 0 -9 4 -9 8 0 5
-11 15 -25 22 -14 7 -25 19 -25 27 0 7 -7 13 -15 13 -8 0 -15 4 -15 8 0 5 -16
14 -35 22 -19 8 -35 17 -35 21 0 4 -9 11 -20 14 -11 4 -18 11 -15 16 4 5 -3 9
-14 9 -12 0 -21 5 -21 10 0 6 -9 10 -19 10 -11 0 -23 5 -26 10 -3 6 -15 10
-26 10 -10 0 -19 4 -19 9 0 5 -10 11 -22 13 -13 2 -22 9 -21 16 2 7 -9 12 -27
12 -17 0 -30 5 -30 10 0 6 -13 10 -30 10 -16 0 -30 5 -30 10 0 6 -14 10 -30
10 -18 0 -33 6 -36 15 -4 10 -20 15 -46 15 -23 0 -37 4 -33 10 4 6 -13 10 -44
10 -28 0 -51 4 -51 9 0 4 -33 12 -72 16 -102 11 -588 14 -588 4z m344 -28 c4
-5 50 -12 104 -15 205 -13 429 -74 607 -163 104 -52 119 -63 282 -200 232
-196 388 -428 451 -668 33 -129 38 -157 51 -301 12 -140 4 -286 -23 -469 -13
-82 -31 -150 -61 -230 -13 -33 -33 -87 -46 -120 -35 -93 -67 -153 -128 -240
-60 -86 -284 -315 -356 -365 -49 -34 -276 -150 -293 -150 -6 0 -48 -20 -94
-44 -92 -49 -244 -103 -328 -118 -174 -29 -546 -33 -680 -7 -107 21 -191 44
-257 70 -13 5 -33 13 -45 18 -13 5 -45 16 -73 26 -57 19 -93 34 -115 46 -8 5
-44 25 -80 45 -118 66 -232 147 -296 211 -35 34 -64 68 -64 74 0 6 14 27 30
46 17 18 30 39 30 45 0 18 -44 -17 -59 -48 -13 -26 -15 -27 -25 -10 -6 11 -32
43 -57 71 -62 70 -121 152 -141 195 -33 72 -48 113 -48 131 0 18 111 119 131
119 5 0 9 6 9 14 0 8 -15 16 -36 19 -28 5 -48 -1 -90 -24 -57 -30 -57 -30 -67
21 -3 14 -11 43 -17 65 -41 146 -51 230 -45 364 3 73 10 142 16 152 5 11 20
19 34 19 30 0 33 16 5 25 -31 10 -24 28 9 22 34 -7 45 1 29 21 -10 11 -8 16 6
24 24 13 4 28 -39 28 l-31 0 10 55 c6 30 15 55 22 55 7 0 9 10 6 25 -4 22 58
212 78 240 4 6 24 44 46 85 96 189 286 386 499 519 39 24 88 56 110 70 59 38
132 74 200 100 33 13 69 27 80 31 34 14 77 27 145 45 36 9 76 21 90 25 25 8
105 19 170 24 98 7 316 29 319 32 7 7 20 4 25 -5z"/>
<path d="M2255 3304 c-27 -2 -70 -9 -95 -15 -371 -91 -672 -362 -798 -719 -83
-237 -92 -279 -92 -437 0 -146 8 -195 50 -306 l21 -57 -33 -39 c-18 -21 -59
-60 -90 -85 -55 -46 -78 -76 -57 -76 5 0 43 23 84 50 42 28 83 54 93 57 9 4
21 11 25 17 5 7 12 5 20 -8 72 -111 103 -152 172 -221 45 -44 111 -100 148
-125 36 -25 67 -49 67 -53 0 -5 -10 -23 -22 -40 -66 -91 -130 -257 -100 -257
9 0 19 17 53 95 28 63 98 175 110 175 5 0 -2 -22 -16 -50 -47 -92 -21 -112 28
-22 16 29 33 52 38 52 14 0 3 -33 -32 -97 -16 -29 -27 -53 -24 -53 24 0 57 31
80 76 16 30 30 54 31 54 2 0 29 -7 61 -15 167 -45 370 -59 495 -35 292 56 422
117 621 291 l57 50 46 -40 c41 -36 64 -44 64 -23 0 10 -44 57 -71 76 -22 15
-22 15 39 84 74 83 119 177 170 352 11 40 16 105 18 235 l2 180 46 5 c66 8 84
30 26 30 -25 0 -52 5 -60 10 -12 7 -8 10 15 10 17 0 44 10 60 21 l30 21 -55
-5 c-30 -3 -62 -8 -70 -11 -12 -5 -20 6 -34 46 -93 263 -243 482 -416 606 -93
67 -131 89 -245 137 -111 48 -298 72 -460 59z m315 -53 c215 -62 335 -126 454
-245 82 -81 186 -221 230 -312 48 -96 66 -234 47 -366 -7 -49 -17 -88 -22 -88
-5 0 -9 8 -9 19 0 28 -29 93 -55 121 -12 14 -37 52 -55 85 -30 55 -50 79 -58
71 -1 -2 10 -37 26 -77 42 -105 91 -264 98 -320 5 -39 2 -54 -16 -83 -12 -20
-23 -36 -24 -36 -2 0 2 18 7 40 19 68 -26 204 -69 213 -28 5 -28 5 -10 -59 8
-27 17 -80 20 -119 4 -47 11 -74 22 -82 19 -14 14 -32 -26 -113 -51 -101 -274
-289 -413 -349 -27 -12 -51 -21 -53 -21 -2 0 -4 14 -4 30 0 17 -7 45 -16 62
-16 32 -16 32 -28 9 l-12 -22 -13 28 c-13 26 -14 27 -22 8 -4 -11 -8 -45 -8
-76 -1 -40 -6 -60 -18 -71 -30 -25 -220 -42 -316 -29 -173 25 -322 73 -425
138 -76 48 -221 191 -261 258 -28 46 -32 60 -23 78 29 61 43 147 23 147 -11 0
-21 -25 -21 -51 0 -10 -4 -19 -10 -19 -5 0 -10 -16 -10 -36 0 -39 -14 -38 -24
2 -5 17 -2 30 7 38 8 6 17 29 21 51 3 22 8 52 12 68 4 17 2 27 -5 27 -6 0 -11
-7 -11 -15 0 -8 -4 -15 -10 -15 -20 0 -12 61 22 181 5 19 8 46 6 60 -3 23 -4
22 -20 -11 -15 -32 -29 -78 -57 -186 -6 -23 -11 -59 -11 -80 0 -28 -3 -35 -11
-27 -7 7 -9 30 -5 60 17 134 18 173 6 173 -12 0 -9 111 5 179 6 24 4 32 -4 27
-6 -4 -11 -18 -11 -31 0 -13 -4 -27 -10 -30 -5 -3 -10 -17 -10 -31 0 -13 -4
-24 -10 -24 -13 0 -13 54 0 97 28 93 35 113 61 168 32 70 112 193 161 247 112
127 346 280 488 321 30 8 71 20 90 25 19 6 100 10 180 11 113 0 159 -4 210
-18z"/>
</g>
</svg>
